<mxfile host="Electron" modified="2021-08-26T00:26:34.565Z" agent="5.0 (Windows NT 10.0; Win64; x64) AppleWebKit/537.36 (KHTML, like Gecko) draw.io/13.9.9 Chrome/85.0.4183.121 Electron/10.1.5 Safari/537.36" etag="3ICA_2EMxEj2pI_fD3Gu" version="13.9.9" type="device">
  <diagram id="vQ58VrMCxerkZ-4YOqrz" name="Page-1">
    <mxGraphModel dx="460" dy="813" grid="1" gridSize="10" guides="1" tooltips="1" connect="1" arrows="1" fold="1" page="1" pageScale="1" pageWidth="1654" pageHeight="1169" math="0" shadow="0">
      <root>
        <mxCell id="0" />
        <mxCell id="1" parent="0" />
        <mxCell id="1UeHHiIuyx6I3aR4QwpF-1" value="Server" style="rounded=0;whiteSpace=wrap;html=1;fontFamily=Roboto;" vertex="1" parent="1">
          <mxGeometry x="310" y="270" width="130" height="30" as="geometry" />
        </mxCell>
        <mxCell id="1UeHHiIuyx6I3aR4QwpF-2" value="Text" style="text;html=1;strokeColor=none;fillColor=none;align=center;verticalAlign=middle;whiteSpace=wrap;rounded=0;fontFamily=Roboto;" vertex="1" parent="1">
          <mxGeometry x="530" y="400" width="40" height="20" as="geometry" />
        </mxCell>
        <mxCell id="1UeHHiIuyx6I3aR4QwpF-4" value="User" style="shape=umlActor;verticalLabelPosition=bottom;verticalAlign=top;html=1;outlineConnect=0;fontFamily=Roboto;" vertex="1" parent="1">
          <mxGeometry x="60" y="240" width="30" height="60" as="geometry" />
        </mxCell>
        <mxCell id="1UeHHiIuyx6I3aR4QwpF-5" value="" style="rounded=0;whiteSpace=wrap;html=1;fontFamily=Roboto;" vertex="1" parent="1">
          <mxGeometry x="370" y="310" width="10" height="450" as="geometry" />
        </mxCell>
      </root>
    </mxGraphModel>
  </diagram>
</mxfile>
